<svg width="460" height="426" viewBox="0 0 460 426" fill="none" xmlns="http://www.w3.org/2000/svg">
<g clip-path="url(#clip0_192_623)">
<path d="M505.228 375.675H-46.3311V375.951H505.228V375.675Z" fill="#EBEBEB"/>
<path d="M449.962 393.432H413.426V393.708H449.962V393.432Z" fill="#EBEBEB"/>
<path d="M319.044 396.434H309.458V396.71H319.044V396.434Z" fill="#EBEBEB"/>
<path d="M412.323 383.19H391.154V383.466H412.323V383.19Z" fill="#EBEBEB"/>
<path d="M59.1822 385.044H11.5386V385.32H59.1822V385.044Z" fill="#EBEBEB"/>
<path d="M75.9935 385.044H69.0107V385.32H75.9935V385.044Z" fill="#EBEBEB"/>
<path d="M202.036 389.702H98.6958V389.978H202.036V389.702Z" fill="#EBEBEB"/>
<path d="M215.108 326.453H2.10662C0.437984 326.45 -1.16131 325.785 -2.34018 324.603C-3.51905 323.422 -4.18115 321.821 -4.18115 320.151V20.5937C-4.16663 18.9339 -3.49811 17.3468 -2.32081 16.1772C-1.14351 15.0076 0.447496 14.35 2.10662 14.3472H215.108C216.778 14.3472 218.38 15.0111 219.562 16.1929C220.743 17.3747 221.406 18.9776 221.406 20.6489V320.151C221.406 321.822 220.743 323.425 219.562 324.607C218.38 325.789 216.778 326.453 215.108 326.453ZM2.10662 14.5679C0.511126 14.5708 -1.01802 15.207 -2.14517 16.3367C-3.27232 17.4664 -3.90538 18.9975 -3.90537 20.5937V320.151C-3.90538 321.747 -3.27232 323.278 -2.14517 324.408C-1.01802 325.538 0.511126 326.174 2.10662 326.177H215.108C216.704 326.174 218.234 325.538 219.363 324.409C220.492 323.279 221.128 321.748 221.131 320.151V20.5937C221.128 18.9965 220.492 17.4655 219.363 16.336C218.234 15.2066 216.704 14.5708 215.108 14.5679H2.10662Z" fill="#EBEBEB"/>
<path d="M453.723 326.453H240.711C239.041 326.45 237.441 325.785 236.26 324.604C235.08 323.423 234.415 321.822 234.412 320.151V20.5937C234.43 18.9329 235.1 17.3458 236.28 16.1765C237.459 15.0073 239.051 14.35 240.711 14.3472H453.723C455.38 14.3529 456.968 15.0118 458.143 16.1811C459.318 17.3504 459.985 18.9358 460 20.5937V320.151C460 321.819 459.339 323.418 458.163 324.599C456.986 325.781 455.39 326.447 453.723 326.453ZM240.711 14.5679C239.114 14.5708 237.584 15.2066 236.455 16.336C235.326 17.4655 234.691 18.9965 234.688 20.5937V320.151C234.691 321.748 235.326 323.279 236.455 324.409C237.584 325.538 239.114 326.174 240.711 326.177H453.723C455.319 326.174 456.85 325.538 457.979 324.409C459.107 323.279 459.743 321.748 459.746 320.151V20.5937C459.743 18.9965 459.107 17.4655 457.979 16.336C456.85 15.2066 455.319 14.5708 453.723 14.5679H240.711Z" fill="#EBEBEB"/>
<path d="M135.121 26.2112H56.5234V292.969H135.121V26.2112Z" fill="#FAFAFA"/>
<path d="M123.416 26.2112H118.828L91.415 292.969H96.004L123.416 26.2112Z" fill="#F5F5F5"/>
<path d="M133.731 27.2375H56.0161V29.5883H133.731V27.2375Z" fill="#E0E0E0"/>
<path d="M133.731 290.629H56.0161V295.662H133.731V290.629Z" fill="#EBEBEB"/>
<path d="M132.44 295.441H59.0059V295.662H132.44V295.441Z" fill="#EBEBEB"/>
<path d="M59.0054 27.2376H132.44V295.441H136.841V23.9377H54.604V295.441H59.0054V27.2376Z" fill="#EBEBEB"/>
<path d="M222.587 26.2112H143.99V292.969H222.587V26.2112Z" fill="#FAFAFA"/>
<path d="M200.778 26.2112H175.726L148.314 292.969H173.366L200.778 26.2112Z" fill="#F5F5F5"/>
<path d="M223.403 27.2375H143.482V29.5883H223.403V27.2375Z" fill="#E0E0E0"/>
<path d="M223.403 290.629H143.482V295.662H223.403V290.629Z" fill="#EBEBEB"/>
<path d="M219.906 295.441H146.472V295.662H219.906V295.441Z" fill="#EBEBEB"/>
<path d="M146.472 27.2376H219.906V295.441H224.297V23.9377H142.07V295.441H146.472V27.2376Z" fill="#EBEBEB"/>
<path d="M307.836 26.2112H231.445V292.969H307.836V26.2112Z" fill="#FAFAFA"/>
<path d="M274.731 26.2112H270.142L242.73 292.969H247.319L274.731 26.2112Z" fill="#F5F5F5"/>
<path d="M308.663 27.2375H230.949V29.5883H308.663V27.2375Z" fill="#E0E0E0"/>
<path d="M308.663 290.629H230.949V295.662H308.663V290.629Z" fill="#EBEBEB"/>
<path d="M307.373 295.441H233.938V295.662H307.373V295.441Z" fill="#EBEBEB"/>
<path d="M233.938 27.2376H307.362V295.441H311.763V23.9377H229.537V295.441H233.938V27.2376Z" fill="#EBEBEB"/>
<path d="M397.508 26.2112H318.911V292.969H397.508V26.2112Z" fill="#FAFAFA"/>
<path d="M389.82 26.2112H364.768L337.344 292.969H362.407L389.82 26.2112Z" fill="#F5F5F5"/>
<path d="M396.118 27.2375H318.404V29.5883H396.118V27.2375Z" fill="#E0E0E0"/>
<path d="M396.118 290.629H318.404V295.662H396.118V290.629Z" fill="#EBEBEB"/>
<path d="M321.393 27.2376H394.828V295.441H399.229V23.9377H317.003V295.441H321.393V27.2376Z" fill="#EBEBEB"/>
<path d="M394.828 295.441H321.393V295.662H394.828V295.441Z" fill="#EBEBEB"/>
<path d="M116.313 231.607H82.1934V290.64H116.313V231.607Z" fill="#EBEBEB"/>
<path d="M109.76 223.352V238.163H107.079H91.4372H88.7456V223.352H109.76Z" fill="#EBEBEB"/>
<path d="M109.76 238.163H114.128V233.792H109.76V238.163Z" fill="#FAFAFA"/>
<path d="M101.31 238.163H105.679V233.792H101.31V238.163Z" fill="#FAFAFA"/>
<path d="M92.8494 238.163H97.2178V233.792H92.8494V238.163Z" fill="#FAFAFA"/>
<path d="M84.3885 238.163H88.7568V233.792H84.3885V238.163Z" fill="#F0F0F0"/>
<path d="M109.76 246.098H114.128V241.727H109.76V246.098Z" fill="#F0F0F0"/>
<path d="M101.31 246.098H105.679V241.727H101.31V246.098Z" fill="#F0F0F0"/>
<path d="M92.8494 246.098H97.2178V241.727H92.8494V246.098Z" fill="#FAFAFA"/>
<path d="M84.3885 246.098H88.7568V241.727H84.3885V246.098Z" fill="#FAFAFA"/>
<path d="M109.76 254.044H114.128V249.674H109.76V254.044Z" fill="#F0F0F0"/>
<path d="M101.31 254.044H105.679V249.674H101.31V254.044Z" fill="#FAFAFA"/>
<path d="M92.8494 254.044H97.2178V249.674H92.8494V254.044Z" fill="#FAFAFA"/>
<path d="M101.31 231.298H105.679V226.928H101.31V231.298Z" fill="#FAFAFA"/>
<path d="M92.8494 231.298H97.2178V226.928H92.8494V231.298Z" fill="#F0F0F0"/>
<path d="M84.3885 254.044H88.7568V249.674H84.3885V254.044Z" fill="#F0F0F0"/>
<path d="M109.76 261.99H114.128V257.62H109.76V261.99Z" fill="#FAFAFA"/>
<path d="M101.31 261.99H105.679V257.62H101.31V261.99Z" fill="#F0F0F0"/>
<path d="M92.8494 261.99H97.2178V257.62H92.8494V261.99Z" fill="#F0F0F0"/>
<path d="M84.3885 261.99H88.7568V257.62H84.3885V261.99Z" fill="#FAFAFA"/>
<path d="M109.76 269.936H114.128V265.566H109.76V269.936Z" fill="#F0F0F0"/>
<path d="M101.31 269.936H105.679V265.566H101.31V269.936Z" fill="#FAFAFA"/>
<path d="M92.8494 269.936H97.2178V265.566H92.8494V269.936Z" fill="#FAFAFA"/>
<path d="M84.3885 269.936H88.7568V265.566H84.3885V269.936Z" fill="#F0F0F0"/>
<path d="M109.76 277.871H114.128V273.501H109.76V277.871Z" fill="#F0F0F0"/>
<path d="M101.31 277.871H105.679V273.501H101.31V277.871Z" fill="#FAFAFA"/>
<path d="M92.8494 277.871H97.2178V273.501H92.8494V277.871Z" fill="#F0F0F0"/>
<path d="M84.3885 277.871H88.7568V273.501H84.3885V277.871Z" fill="#FAFAFA"/>
<path d="M109.76 285.817H114.128V281.447H109.76V285.817Z" fill="#FAFAFA"/>
<path d="M101.31 285.817H105.679V281.447H101.31V285.817Z" fill="#FAFAFA"/>
<path d="M92.8494 285.817H97.2178V281.447H92.8494V285.817Z" fill="#F0F0F0"/>
<path d="M84.3885 285.817H88.7568V281.447H84.3885V285.817Z" fill="#F0F0F0"/>
<path d="M356.682 253.106H326.114V290.629H356.682V253.106Z" fill="#F0F0F0"/>
<path d="M328.773 257.278H335.877H337.841H339.793V261.184H337.841H335.877H328.773V257.278Z" fill="#E6E6E6"/>
<path d="M328.773 264.859H335.877H337.841H339.793V268.777H337.841H335.877H328.773V264.859Z" fill="#FAFAFA"/>
<path d="M328.773 272.441H335.877H337.841H339.793V276.359H337.841H335.877H328.773V272.441Z" fill="#E6E6E6"/>
<path d="M328.773 280.023H335.877H338.9H339.793V283.941H338.9H335.877H328.773V280.023Z" fill="#FAFAFA"/>
<path d="M342.992 257.278H350.107H352.06H354.012V261.184H352.06H350.107H342.992V257.278Z" fill="#FAFAFA"/>
<path d="M342.992 264.859H350.107H352.865H354.012V268.777H352.865H350.107H342.992V264.859Z" fill="#FAFAFA"/>
<path d="M342.992 272.441H350.107H352.06H354.012V276.359H352.06H350.107H342.992V272.441Z" fill="#E6E6E6"/>
<path d="M342.992 280.023H350.107H352.06H354.012V283.941H352.06H350.107H342.992V280.023Z" fill="#FAFAFA"/>
<path d="M209.382 267.321H181.606V290.64H209.382V267.321Z" fill="#F0F0F0"/>
<path d="M204.054 273.788H207.606V270.234H204.054V273.788Z" fill="#FAFAFA"/>
<path d="M197.171 273.788H200.723V270.234H197.171V273.788Z" fill="#FAFAFA"/>
<path d="M190.277 273.788H193.829V270.234H190.277V273.788Z" fill="#FAFAFA"/>
<path d="M183.393 273.788H186.945V270.234H183.393V273.788Z" fill="#FAFAFA"/>
<path d="M204.054 280.244H207.606V276.69H204.054V280.244Z" fill="#FAFAFA"/>
<path d="M197.171 280.244H200.723V276.69H197.171V280.244Z" fill="#FAFAFA"/>
<path d="M190.277 280.244H193.829V276.69H190.277V280.244Z" fill="#FAFAFA"/>
<path d="M183.393 280.244H186.945V276.69H183.393V280.244Z" fill="#E6E6E6"/>
<path d="M204.054 286.711H207.606V283.158H204.054V286.711Z" fill="#E6E6E6"/>
<path d="M197.171 286.711H200.723V283.158H197.171V286.711Z" fill="#E6E6E6"/>
<path d="M190.277 286.711H193.829V283.158H190.277V286.711Z" fill="#FAFAFA"/>
<path d="M183.393 286.711H186.945V283.158H183.393V286.711Z" fill="#E6E6E6"/>
<path d="M177.844 250.082H150.068V290.64H177.844V250.082Z" fill="#F0F0F0"/>
<path d="M176.069 251.859H165.622V261.88H176.069V251.859Z" fill="#FAFAFA"/>
<path d="M162.29 251.859H151.844V261.88H162.29V251.859Z" fill="#FAFAFA"/>
<path d="M176.069 264.782H165.622V274.803H176.069V264.782Z" fill="#FAFAFA"/>
<path d="M162.29 264.782H151.844V274.803H162.29V264.782Z" fill="#FAFAFA"/>
<path d="M176.069 277.706H165.622V287.727H176.069V277.706Z" fill="#FAFAFA"/>
<path d="M162.29 277.706H151.844V287.727H162.29V277.706Z" fill="#FAFAFA"/>
<path d="M229.448 425.514C347.573 425.514 443.332 419.921 443.332 413.021C443.332 406.122 347.573 400.528 229.448 400.528C111.324 400.528 15.5649 406.122 15.5649 413.021C15.5649 419.921 111.324 425.514 229.448 425.514Z" fill="#F5F5F5"/>
<path d="M444.082 41.5074V284.57L414.849 313.816H245.62V41.5074H444.082Z" fill="#002F87"/>
<path opacity="0.8" d="M444.082 41.5074V284.57L414.849 313.816H245.62V41.5074H444.082Z" fill="white"/>
<path opacity="0.2" d="M414.85 313.816V285.431H444.082L415.423 314.103" fill="black"/>
<path opacity="0.1" d="M320.72 65.1141H265.984C265.214 65.1141 264.476 64.8083 263.932 64.2639C263.388 63.7196 263.083 62.9813 263.083 62.2115C263.081 61.8295 263.155 61.4508 263.3 61.0974C263.445 60.744 263.659 60.4227 263.928 60.152C264.198 59.8813 264.518 59.6665 264.871 59.52C265.224 59.3734 265.602 59.298 265.984 59.298H320.72C321.491 59.3009 322.229 59.6091 322.773 60.1552C323.316 60.7013 323.622 61.4407 323.622 62.2115C323.622 62.9813 323.316 63.7196 322.772 64.2639C322.228 64.8083 321.49 65.1141 320.72 65.1141Z" fill="black"/>
<path opacity="0.1" d="M420.001 88.6655H288.046C287.664 88.6655 287.286 88.59 286.933 88.4435C286.58 88.2969 286.26 88.0821 285.99 87.8115C285.721 87.5408 285.507 87.2195 285.362 86.866C285.217 86.5126 285.143 86.134 285.145 85.7519C285.145 84.9821 285.45 84.2438 285.994 83.6995C286.538 83.1552 287.276 82.8494 288.046 82.8494H420.001C420.77 82.8494 421.508 83.1552 422.052 83.6995C422.596 84.2438 422.902 84.9821 422.902 85.7519C422.902 86.5227 422.597 87.2621 422.053 87.8082C421.509 88.3543 420.771 88.6626 420.001 88.6655Z" fill="black"/>
<path opacity="0.1" d="M420.001 100.11H265.984C265.214 100.11 264.476 99.8043 263.932 99.2599C263.388 98.7156 263.083 97.9773 263.083 97.2075C263.081 96.8254 263.155 96.4468 263.3 96.0934C263.445 95.7399 263.659 95.4187 263.928 95.148C264.198 94.8773 264.518 94.6625 264.871 94.5159C265.224 94.3694 265.602 94.2939 265.984 94.2939H420.001C420.771 94.2969 421.509 94.6051 422.053 95.1512C422.597 95.6973 422.902 96.4367 422.902 97.2075C422.902 97.9773 422.597 98.7156 422.052 99.2599C421.508 99.8043 420.77 100.11 420.001 100.11Z" fill="black"/>
<path opacity="0.1" d="M420.001 113.044H265.984C265.602 113.044 265.224 112.969 264.871 112.823C264.518 112.676 264.198 112.461 263.928 112.19C263.659 111.92 263.445 111.599 263.3 111.245C263.155 110.892 263.081 110.513 263.083 110.131C263.083 109.361 263.388 108.623 263.932 108.079C264.476 107.534 265.214 107.228 265.984 107.228H420.001C420.77 107.228 421.508 107.534 422.052 108.079C422.597 108.623 422.902 109.361 422.902 110.131C422.902 110.902 422.597 111.641 422.053 112.187C421.509 112.733 420.771 113.042 420.001 113.044Z" fill="black"/>
<path opacity="0.1" d="M420.001 125.968H265.984C265.214 125.968 264.476 125.662 263.932 125.118C263.388 124.574 263.083 123.835 263.083 123.065C263.083 122.296 263.388 121.557 263.932 121.013C264.476 120.469 265.214 120.163 265.984 120.163H420.001C420.77 120.163 421.508 120.469 422.052 121.013C422.597 121.557 422.902 122.296 422.902 123.065C422.902 123.835 422.597 124.574 422.052 125.118C421.508 125.662 420.77 125.968 420.001 125.968Z" fill="black"/>
<path opacity="0.1" d="M420.001 138.903H265.984C265.214 138.903 264.476 138.597 263.932 138.052C263.388 137.508 263.083 136.77 263.083 136C263.081 135.618 263.155 135.24 263.3 134.887C263.446 134.535 263.659 134.214 263.929 133.944C264.199 133.674 264.519 133.461 264.872 133.315C265.224 133.17 265.602 133.096 265.984 133.097H420.001C420.77 133.097 421.508 133.403 422.052 133.948C422.597 134.492 422.902 135.23 422.902 136C422.902 136.77 422.597 137.508 422.052 138.052C421.508 138.597 420.77 138.903 420.001 138.903Z" fill="black"/>
<path opacity="0.1" d="M420.001 151.837H265.984C265.214 151.837 264.476 151.531 263.932 150.987C263.388 150.443 263.083 149.704 263.083 148.934C263.081 148.552 263.155 148.174 263.3 147.82C263.445 147.467 263.659 147.146 263.928 146.875C264.198 146.604 264.518 146.389 264.871 146.243C265.224 146.096 265.602 146.021 265.984 146.021H420.001C420.771 146.024 421.509 146.332 422.053 146.878C422.597 147.424 422.902 148.164 422.902 148.934C422.902 149.704 422.597 150.443 422.052 150.987C421.508 151.531 420.77 151.837 420.001 151.837Z" fill="black"/>
<path opacity="0.1" d="M420.012 158.955H265.984C264.381 158.955 263.083 160.255 263.083 161.858V161.869C263.083 163.472 264.381 164.772 265.984 164.772H420.012C421.614 164.772 422.913 163.472 422.913 161.869V161.858C422.913 160.255 421.614 158.955 420.012 158.955Z" fill="black"/>
<path opacity="0.1" d="M420.001 177.684H265.984C265.214 177.684 264.476 177.378 263.932 176.834C263.388 176.29 263.083 175.551 263.083 174.781C263.083 174.012 263.388 173.273 263.932 172.729C264.476 172.185 265.214 171.879 265.984 171.879H420.001C420.77 171.879 421.508 172.185 422.052 172.729C422.597 173.273 422.902 174.012 422.902 174.781C422.902 175.551 422.597 176.29 422.052 176.834C421.508 177.378 420.77 177.684 420.001 177.684Z" fill="black"/>
<path opacity="0.1" d="M420.001 190.63H265.984C265.214 190.63 264.476 190.324 263.932 189.779C263.388 189.235 263.083 188.497 263.083 187.727C263.081 187.345 263.155 186.967 263.3 186.615C263.446 186.262 263.659 185.941 263.929 185.671C264.199 185.402 264.519 185.188 264.872 185.042C265.224 184.897 265.602 184.823 265.984 184.824H420.001C420.77 184.824 421.508 185.13 422.052 185.675C422.597 186.219 422.902 186.957 422.902 187.727C422.902 188.497 422.597 189.235 422.052 189.779C421.508 190.324 420.77 190.63 420.001 190.63Z" fill="black"/>
<path opacity="0.1" d="M420.001 203.564H265.984C265.214 203.564 264.476 203.258 263.932 202.714C263.388 202.17 263.083 201.431 263.083 200.662C263.081 200.279 263.155 199.901 263.3 199.547C263.445 199.194 263.659 198.873 263.928 198.602C264.198 198.331 264.518 198.116 264.871 197.97C265.224 197.823 265.602 197.748 265.984 197.748H420.001C420.771 197.751 421.509 198.059 422.053 198.605C422.597 199.151 422.902 199.891 422.902 200.662C422.902 201.431 422.597 202.17 422.052 202.714C421.508 203.258 420.77 203.564 420.001 203.564Z" fill="black"/>
<path opacity="0.1" d="M420.001 216.499H265.984C265.602 216.499 265.224 216.423 264.871 216.277C264.518 216.13 264.198 215.915 263.928 215.645C263.659 215.374 263.445 215.053 263.3 214.699C263.155 214.346 263.081 213.967 263.083 213.585C263.083 212.815 263.388 212.077 263.932 211.533C264.476 210.988 265.214 210.682 265.984 210.682H420.001C420.77 210.682 421.508 210.988 422.052 211.533C422.597 212.077 422.902 212.815 422.902 213.585C422.902 214.356 422.597 215.095 422.053 215.641C421.509 216.187 420.771 216.496 420.001 216.499Z" fill="black"/>
<path opacity="0.1" d="M331.752 229.422H265.984C265.214 229.422 264.476 229.116 263.932 228.572C263.388 228.028 263.083 227.289 263.083 226.519C263.083 225.75 263.388 225.011 263.932 224.467C264.476 223.923 265.214 223.617 265.984 223.617H331.752C332.521 223.617 333.259 223.923 333.803 224.467C334.347 225.011 334.653 225.75 334.653 226.519C334.653 227.289 334.347 228.028 333.803 228.572C333.259 229.116 332.521 229.422 331.752 229.422Z" fill="black"/>
<path d="M408.153 101.07L407.944 100.894C407.348 100.441 407.006 100.596 406.73 99.7238C406.532 99.0948 406.73 98.3884 406.499 97.7373C405.973 96.6164 405.372 95.5324 404.7 94.4926L401.987 89.6036C401.381 88.521 400.371 87.7227 399.178 87.3834C397.985 87.0442 396.706 87.1917 395.622 87.7936L370.636 101.721C370.537 102.56 369.842 103.134 369.699 103.929C369.649 104.163 369.662 104.407 369.735 104.635C369.809 104.864 369.941 105.069 370.118 105.231C369.837 105.225 369.566 105.129 369.346 104.955C367.856 104.127 367.459 103.465 365.926 104.304C365.264 104.657 364.613 105.032 363.962 105.407L357.344 109.105L336.605 120.66L312.336 134.212L292.116 145.48C289.359 147.014 286.016 148.361 283.556 150.314C284.24 150.667 284.361 151.208 283.755 151.738L282.652 152.742C282.652 153.018 283.049 153.018 283.302 152.908L284.67 152.323C283.72 153.53 282.575 154.57 281.284 155.402C279.115 156.662 276.784 157.62 274.356 158.249L275.525 156.781C275.614 156.66 275.724 156.505 275.647 156.362C275.57 156.218 275.426 156.207 275.294 156.196C274.709 156.13 274.124 156.196 273.694 155.766C269.922 157.973 265.972 160.07 262.134 162.211C261.051 162.817 260.254 163.828 259.914 165.021C259.575 166.215 259.723 167.494 260.324 168.579L285.52 213.828C285.818 214.365 286.218 214.837 286.699 215.219C287.18 215.6 287.731 215.883 288.321 216.051C288.912 216.22 289.529 216.27 290.139 216.199C290.748 216.128 291.338 215.937 291.874 215.638L298.503 211.896C298.503 211.113 299.121 210.241 298.658 209.524C298.592 209.437 298.55 209.334 298.536 209.226C298.536 209.082 298.669 208.972 298.79 208.895C299.47 208.463 300.248 208.212 301.052 208.166C301.327 208.166 301.691 208.288 301.647 208.552C301.647 208.31 303.07 207.802 303.302 207.725C303.412 208.321 303.004 208.961 303.699 209.082C304.394 209.204 305.453 207.979 305.905 207.758L312.524 204.061L333.483 192.395L356.472 179.582L371.75 171.062C372.302 170.742 372.953 170.367 373.482 170.102C373.674 169.09 374.166 168.159 374.894 167.431C375.997 166.67 377.74 167.509 378.656 166.427C378.832 166.217 378.943 165.964 379.097 165.743C379.405 165.384 379.78 165.088 380.2 164.871C380.467 164.661 380.789 164.535 381.127 164.507C381.458 164.507 381.811 164.783 381.767 165.114C384.039 164.584 386.091 163.05 388.099 161.913C388.827 161.505 395.214 158.503 395.192 158.028C395.103 156.561 395.997 155.302 395.953 153.791C395.953 153.504 395.39 151.583 395.644 151.44C389.908 154.861 383.951 157.973 378.104 161.218C377.906 161.339 377.156 161.593 377.001 161.814C377.001 161.814 376.946 161.913 376.924 161.968L376.759 162.333V162.421C376.521 163.172 376.241 163.909 375.92 164.628C375.92 164.727 374.674 166.273 374.574 165.908C374.089 164.131 373.471 163.856 372.114 164.584L370.173 165.688L364.007 169.12L343.235 180.708L318.757 194.349L298.36 205.716L289.811 210.473C288.105 207.383 286.387 204.296 284.659 201.213L281.35 195.265C281.015 194.44 280.52 193.69 279.894 193.058C279.419 192.704 278.614 192.793 278.195 192.473C277.169 191.689 276.43 190.265 275.459 189.349C274.797 188.731 273.794 186.877 274.069 185.851C274.4 185.983 274.731 186.127 275.062 186.226C274.889 185.547 274.928 184.83 275.172 184.173C271.863 178.6 268.818 172.773 265.653 167.078L265.443 166.714L273.165 162.41L278.802 159.264C279.961 158.766 281.069 158.156 282.111 157.444C282.828 156.825 283.556 156.053 284.317 155.391C284.828 155.002 285.384 154.676 285.972 154.42L288.057 153.404C288.164 153.34 288.285 153.302 288.41 153.294C288.535 153.307 288.657 153.337 288.774 153.382C289.877 153.614 292.613 151.572 293.606 151.02L300.026 147.445L319.396 136.64L343.533 123.198L367.691 109.723L387.128 98.8961L397.056 93.378L397.519 93.1241L408.253 112.404C408.917 113.704 409.98 114.756 411.286 115.406C411.727 115.55 412.224 115.859 412.169 116.311C412.113 116.764 411.452 117.139 411.606 117.603C411.76 118.066 412.61 117.89 412.808 118.309C413.007 118.728 412.466 119.413 412.533 119.986C412.761 120.673 413.1 121.318 413.536 121.896L416.658 127.513C418.401 130.625 420.133 133.749 421.887 136.894L402.803 147.533C402.897 147.609 402.976 147.703 403.035 147.809L403.134 148.063C403.513 148.197 403.882 148.359 404.237 148.548C404.389 148.633 404.515 148.759 404.601 148.91C404.686 149.062 404.729 149.235 404.723 149.409C404.72 149.581 404.672 149.75 404.582 149.897C404.493 150.045 404.366 150.166 404.215 150.248L403.046 150.91C403.004 151.166 402.886 151.403 402.707 151.59C402.528 151.778 402.296 151.906 402.042 151.958C401.906 151.97 401.77 151.97 401.634 151.958C401.518 152.044 401.385 152.102 401.244 152.131C401.103 152.16 400.957 152.157 400.818 152.124C400.568 152.047 400.357 151.877 400.23 151.649C400.103 151.421 400.068 151.152 400.134 150.899C400.179 150.785 400.238 150.678 400.31 150.579C400.226 150.418 400.188 150.237 400.2 150.057C400.212 149.876 400.273 149.701 400.376 149.553H400.023C399.825 149.553 399.648 149.442 399.461 149.387C398.469 150 397.696 150.912 397.254 151.992C397.206 152.05 397.183 152.125 397.188 152.201C397.188 152.356 397.431 152.367 397.574 152.433C397.905 152.588 397.828 153.073 397.663 153.393C397.497 153.713 397.299 154.122 397.519 154.409C397.603 154.505 397.695 154.594 397.795 154.673C398.269 155.214 397.541 156.781 398.7 156.141C398.618 155.8 398.669 155.441 398.843 155.137C399.039 154.83 399.341 154.606 399.692 154.508C400.55 154.3 401.425 154.174 402.307 154.133L425.307 141.264C426.389 140.658 427.187 139.648 427.526 138.454C427.865 137.261 427.717 135.981 427.116 134.896L426.983 134.665L416.592 116.002L410.591 105.209C410.006 104.182 409.488 103.112 408.848 102.097C408.672 101.72 408.438 101.373 408.153 101.07Z" fill="#002F87"/>
<path d="M301.879 162.046C301.118 161.119 301.35 161.096 301.206 160.103C301.206 160.103 301.206 160.103 301.206 160.037L301.118 159.938L300.986 159.783C300.467 160.015 299.949 160.269 299.43 160.556L289.271 166.217L293.363 173.556C292.789 172.541 294.819 172.839 294.896 172.828C295.112 172.765 295.334 172.727 295.558 172.718C295.779 172.765 295.972 172.895 296.099 173.082C296.523 173.824 296.649 174.7 296.452 175.532C296.33 176.636 296.915 177.739 296.286 178.843C296.827 179.726 301.714 188.621 301.736 188.61L311.895 182.948C312.48 182.617 313.87 182.032 314.212 181.447C314.554 180.862 314.013 179.946 314.62 179.67C314.849 179.587 315.093 179.555 315.336 179.578C315.578 179.601 315.812 179.678 316.021 179.803C317.956 177.886 319.2 175.381 319.557 172.68C319.915 169.979 319.365 167.236 317.996 164.882C315.139 159.75 308.652 156.693 302.971 159.077C302.574 159.242 303.104 161.019 302.155 161.218C302.336 160.862 302.597 160.552 302.916 160.313M309.248 178.788L304.516 181.425C304.129 180.73 303.754 180.035 303.357 179.361C303.854 180.2 302.486 179.935 302.199 179.748C301.504 179.284 301.317 177.949 301.294 177.198C301.278 175.911 300.895 174.656 300.191 173.578C299.081 171.57 297.978 169.561 296.882 167.553L301.614 164.915C306.027 162.443 310.439 163.469 312.822 167.751C315.205 172.033 313.694 176.349 309.248 178.788Z" fill="#002F87"/>
<path d="M335.469 143.251C335.71 143.775 335.78 144.362 335.667 144.928C335.612 145.237 335.116 146.032 335.182 146.231C335.359 146.672 335.535 147.113 335.7 147.555C335.73 147.627 335.771 147.694 335.822 147.754C335.907 147.811 336.006 147.841 336.109 147.842C337.863 147.996 337.785 148.173 337.896 149.652C337.995 150.921 339.087 151.649 339.705 152.753C340.534 154.203 340.895 155.875 340.737 157.538C340.579 159.201 339.91 160.775 338.821 162.042C337.733 163.31 336.28 164.209 334.66 164.617C333.041 165.024 331.335 164.92 329.777 164.319C329.735 164.359 329.691 164.396 329.644 164.429C329.412 164.546 329.147 164.577 328.894 164.518C328.321 164.355 327.802 164.041 327.392 163.608C326.982 163.174 326.697 162.639 326.567 162.057C326.55 161.969 326.55 161.879 326.567 161.792C326.255 161.405 325.978 160.992 325.739 160.556C325.172 159.644 324.8 158.625 324.645 157.562C324.49 156.499 324.556 155.416 324.838 154.38C325.121 153.344 325.615 152.378 326.288 151.541C326.961 150.705 327.799 150.017 328.751 149.519C330.13 148.732 331.712 148.371 333.296 148.482L333.207 148.35C332.259 147.091 335.678 146.584 334.134 145.734C333.483 145.381 333.594 143.781 333.428 143.129C330.922 143.186 328.47 143.865 326.291 145.105C319.231 149.045 316.793 156.847 320.5 163.502C322.059 166.365 324.638 168.536 327.725 169.583C328.451 169.899 329.229 170.079 330.019 170.113C330.924 170.036 330.483 170.113 330.869 169.572C331.255 169.032 331.023 168.8 331.608 168.226C332.193 167.652 332.876 167.31 332.998 166.427C332.998 166.824 333.439 167.111 333.439 167.531C333.439 167.652 333.439 167.773 333.439 167.884C333.463 168.028 333.528 168.162 333.627 168.27C334.002 168.778 334.63 169.374 334.641 169.959C336.255 169.691 337.805 169.122 339.208 168.281C346.235 164.363 348.728 156.572 345 149.895C343.069 146.484 339.44 143.472 335.469 143.251Z" fill="#002F87"/>
<path d="M358.028 127.888L365.595 141.474L346.909 134.08L342.628 136.475C345.519 141.662 348.585 146.793 351.299 152.08C351.486 151.506 351.928 151.396 352.457 151.318C353.45 151.186 353.417 151.683 353.957 152.665C354.024 152.786 354.101 152.908 354.222 152.93C354.344 152.952 354.586 152.753 354.785 152.775C354.983 152.797 355.061 153.04 355.005 153.228C354.936 153.411 354.843 153.586 354.73 153.746C354.41 154.353 354.939 154.74 354.873 155.291C354.873 155.578 353.913 156.748 354.024 156.947L355.127 158.845L360.245 155.998L358.877 153.548H358.624C357.134 153.746 357.796 151.793 357.465 150.987C356.93 149.846 356.322 148.74 355.645 147.676L352.634 142.368L367.824 148.35C367.784 147.913 367.837 147.473 367.978 147.058C368.099 146.827 369.081 146.396 369.081 146.175C369.138 146.887 369.47 147.549 370.008 148.018C370.592 148.537 370.592 148.46 370.482 149.376L371.387 149.74L375.645 147.367L363.18 124.997L358.028 127.888Z" fill="#002F87"/>
<path d="M383.741 137.435L380.851 132.259L391.243 126.465L389.036 122.436L378.656 128.231L375.953 123.364L382.969 119.457C383.266 119.074 383.642 118.762 384.072 118.541C384.29 118.429 384.542 118.401 384.778 118.463L387.746 116.819C387.746 116.819 385.639 113.056 385.44 112.658C384.425 113.122 385.44 114.402 384.414 115.02C384.624 115.241 384.933 116.024 384.414 116.124C384.116 116.124 383.896 115.748 383.598 115.782C383.3 115.815 383.289 115.958 383.135 115.914C383.088 115.901 383.045 115.877 383.008 115.844C382.972 115.812 382.943 115.772 382.925 115.726C382.782 115.394 382.601 115.079 382.385 114.788C381.69 114.115 375.347 118.342 374.464 118.839L368.562 122.15L381.017 144.52L385.992 141.75L386.091 141.618C386.455 141.154 386.808 140.679 387.194 140.249C387.351 140.1 387.551 140.005 387.766 139.98C387.981 139.954 388.198 139.998 388.386 140.106C388.475 140.152 388.553 140.216 388.617 140.293L398.336 134.874L396.019 130.714L383.741 137.435Z" fill="#002F87"/>
<path d="M397.012 375.465C397.012 375.465 389.754 359.639 398.038 344.023C406.322 328.406 408.738 324.731 403.454 321.542C398.17 318.352 395.733 334.024 395.733 334.024C395.733 334.024 391.32 323.23 394.949 311.951C398.579 300.672 400.939 282.264 395.92 280.288C390.901 278.313 394.96 303.233 390.603 311.73C388.381 305.766 386.946 299.537 386.334 293.201C385.738 284.129 386.676 269.649 382.705 265.93C378.734 262.211 376.207 264.826 380.101 284.802C382.442 296.766 383.738 308.911 383.973 321.1C383.973 321.1 375.358 294.834 369.633 294.072C363.908 293.311 363.864 301.798 368.817 309.181C373.77 316.564 383.256 329.764 384.812 336.606C384.812 336.606 375.369 316.851 366.864 322.899C358.359 328.947 374.266 340.899 381.348 345.215C388.43 349.53 393.361 376.558 393.361 376.558L397.012 375.465Z" fill="#002F87"/>
<path opacity="0.2" d="M397.012 375.465C397.012 375.465 389.754 359.639 398.038 344.023C406.322 328.406 408.738 324.731 403.454 321.542C398.17 318.352 395.733 334.024 395.733 334.024C395.733 334.024 391.32 323.23 394.949 311.951C398.579 300.672 400.939 282.264 395.92 280.288C390.901 278.313 394.96 303.233 390.603 311.73C388.381 305.766 386.946 299.537 386.334 293.201C385.738 284.129 386.676 269.649 382.705 265.93C378.734 262.211 376.207 264.826 380.101 284.802C382.442 296.766 383.738 308.911 383.973 321.1C383.973 321.1 375.358 294.834 369.633 294.072C363.908 293.311 363.864 301.798 368.817 309.181C373.77 316.564 383.256 329.764 384.812 336.606C384.812 336.606 375.369 316.851 366.864 322.899C358.359 328.947 374.266 340.899 381.348 345.215C388.43 349.53 393.361 376.558 393.361 376.558L397.012 375.465Z" fill="black"/>
<path d="M391.276 381.965C391.276 381.965 398.347 366.018 389.875 350.534C381.403 335.05 378.943 331.408 384.194 328.13C389.445 324.853 392.048 340.502 392.048 340.502C392.048 340.502 396.372 329.653 392.566 318.43C388.761 307.206 386.224 288.83 391.221 286.789C396.218 284.747 392.456 309.722 396.913 318.143C399.065 312.151 400.422 305.902 400.95 299.557C401.447 290.475 400.332 276.006 404.26 272.232C408.187 268.457 410.757 270.996 407.095 291.071C404.899 303.062 403.751 315.222 403.664 327.413C403.664 327.413 411.959 301.025 417.729 300.176C423.498 299.326 423.586 307.824 418.732 315.273C413.879 322.723 404.502 336.077 403.013 342.864C403.013 342.864 412.224 322.999 420.795 328.903C429.366 334.807 413.614 347.002 406.587 351.417C399.56 355.831 394.916 382.959 394.916 382.959L391.276 381.965Z" fill="#002F87"/>
<path d="M423.862 370.598H365.507L370.229 412.381H419.141L423.862 370.598Z" fill="#263238"/>
<path d="M125.347 107.88H86.8374C85.3541 107.88 83.9316 108.469 82.8827 109.518C81.8339 110.568 81.2446 111.991 81.2446 113.475V150.932C81.2446 152.416 81.8339 153.839 82.8827 154.889C83.9316 155.938 85.3541 156.527 86.8374 156.527H99.1593L90.8638 167.806L105.204 156.527H125.336C126.82 156.527 128.242 155.938 129.291 154.889C130.34 153.839 130.929 152.416 130.929 150.932V113.475C130.929 111.993 130.341 110.571 129.295 109.522C128.248 108.473 126.829 107.882 125.347 107.88Z" fill="#002F87"/>
<path opacity="0.6" d="M125.347 107.88H86.8374C85.3541 107.88 83.9316 108.469 82.8827 109.518C81.8339 110.568 81.2446 111.991 81.2446 113.475V150.932C81.2446 152.416 81.8339 153.839 82.8827 154.889C83.9316 155.938 85.3541 156.527 86.8374 156.527H99.1593L90.8638 167.806L105.204 156.527H125.336C126.82 156.527 128.242 155.938 129.291 154.889C130.34 153.839 130.929 152.416 130.929 150.932V113.475C130.929 111.993 130.341 110.571 129.295 109.522C128.248 108.473 126.829 107.882 125.347 107.88Z" fill="white"/>
<path d="M106.098 149.696C115.754 149.696 123.582 141.864 123.582 132.203C123.582 122.543 115.754 114.711 106.098 114.711C96.4413 114.711 88.6133 122.543 88.6133 132.203C88.6133 141.864 96.4413 149.696 106.098 149.696Z" fill="#002F87"/>
<path opacity="0.2" d="M120.683 135.638C122.585 127.576 117.594 119.498 109.536 117.595C101.478 115.692 93.4037 120.685 91.5018 128.747C89.5999 136.809 94.5905 144.887 102.649 146.789C110.707 148.692 118.781 143.699 120.683 135.638Z" fill="black"/>
<path d="M104.234 139.366C104.031 139.37 103.829 139.335 103.639 139.261C103.45 139.187 103.277 139.076 103.131 138.936L96.7656 132.7C96.4731 132.416 96.3052 132.028 96.299 131.62C96.2928 131.212 96.4487 130.819 96.7325 130.526C97.0163 130.233 97.4047 130.065 97.8123 130.059C98.2198 130.053 98.6131 130.209 98.9057 130.493L104.123 135.603L113.147 125.527C113.424 125.248 113.797 125.085 114.189 125.074C114.582 125.062 114.964 125.201 115.257 125.463C115.55 125.725 115.731 126.089 115.764 126.481C115.796 126.873 115.677 127.262 115.43 127.568L105.337 138.836C105.198 138.992 105.028 139.118 104.838 139.205C104.648 139.292 104.443 139.34 104.234 139.344V139.366Z" fill="white"/>
<path d="M56.1492 387.285L87.93 384.15V348.294H100.528V384.139L132.441 387.285C133.97 387.433 135.389 388.146 136.421 389.285C137.453 390.423 138.024 391.906 138.023 393.443V398.222H50.5674V393.443C50.5657 391.906 51.1366 390.423 52.1687 389.285C53.2008 388.146 54.6199 387.433 56.1492 387.285Z" fill="#263238"/>
<path opacity="0.1" d="M56.1492 387.285L87.93 384.15V348.294H100.528V384.139L132.441 387.285C133.97 387.433 135.389 388.146 136.421 389.285C137.453 390.423 138.024 391.906 138.023 393.443V398.222H50.5674V393.443C50.5657 391.906 51.1366 390.423 52.1687 389.285C53.2008 388.146 54.6199 387.433 56.1492 387.285Z" fill="white"/>
<path d="M134.658 412.381C139.209 412.381 142.898 408.69 142.898 404.137C142.898 399.584 139.209 395.893 134.658 395.893C130.107 395.893 126.417 399.584 126.417 404.137C126.417 408.69 130.107 412.381 134.658 412.381Z" fill="#263238"/>
<path d="M53.9317 412.381C58.4827 412.381 62.172 408.69 62.172 404.137C62.172 399.584 58.4827 395.893 53.9317 395.893C49.3807 395.893 45.6914 399.584 45.6914 404.137C45.6914 408.69 49.3807 412.381 53.9317 412.381Z" fill="#263238"/>
<path d="M98.1336 357.895H90.2794C89.0711 357.895 87.9123 357.415 87.0579 356.56C86.2035 355.705 85.7235 354.546 85.7235 353.337V318.087H102.689V353.337C102.689 354.546 102.209 355.705 101.355 356.56C100.501 357.415 99.3419 357.895 98.1336 357.895Z" fill="#263238"/>
<path opacity="0.2" d="M98.1336 357.895H90.2794C89.0711 357.895 87.9123 357.415 87.0579 356.56C86.2035 355.705 85.7235 354.546 85.7235 353.337V318.087H102.689V353.337C102.689 354.546 102.209 355.705 101.355 356.56C100.501 357.415 99.3419 357.895 98.1336 357.895Z" fill="white"/>
<path d="M50.2364 249C50.2364 249 59.6791 307.912 78.3218 318.098H59.3702C59.3702 318.098 40.6172 298.012 34.9692 249H50.2364Z" fill="#263238"/>
<path opacity="0.1" d="M50.2364 249C50.2364 249 59.6791 307.912 78.3218 318.098H59.3702C59.3702 318.098 40.6172 298.012 34.9692 249H50.2364Z" fill="white"/>
<path d="M58.4653 309.766H132.286C133.749 309.766 135.152 310.347 136.186 311.382C137.22 312.417 137.802 313.821 137.802 315.284V322.667H52.9497V315.284C52.9497 313.821 53.5308 312.417 54.5652 311.382C55.5996 310.347 57.0025 309.766 58.4653 309.766Z" fill="#002F87"/>
<path d="M139.081 316.211H51.5932C50.3687 316.211 49.376 317.204 49.376 318.429V320.438C49.376 321.663 50.3687 322.656 51.5932 322.656H139.081C140.306 322.656 141.299 321.663 141.299 320.438V318.429C141.299 317.204 140.306 316.211 139.081 316.211Z" fill="#263238"/>
<path opacity="0.6" d="M139.081 316.211H51.5932C50.3687 316.211 49.376 317.204 49.376 318.429V320.438C49.376 321.663 50.3687 322.656 51.5932 322.656H139.081C140.306 322.656 141.299 321.663 141.299 320.438V318.429C141.299 317.204 140.306 316.211 139.081 316.211Z" fill="white"/>
<path d="M32.7298 260.986H63.0545C71.9456 260.986 77.7149 253.856 75.9499 245.06L73.5893 233.318C71.8243 224.489 63.1869 217.403 54.3068 217.403H23.9821C15.0909 217.403 9.32164 224.533 11.0866 233.318L13.4473 245.06C15.2123 253.834 23.8387 260.986 32.7298 260.986Z" fill="#002F87"/>
<path d="M193.642 359.661L186.692 362.387L181.695 352.962L177.15 344.387L184.85 339.774L189.505 350.291L193.642 359.661Z" fill="#E4897B"/>
<path opacity="0.2" d="M189.505 350.291L181.695 352.962L177.15 344.387L184.85 339.774L189.505 350.291Z" fill="black"/>
<path d="M188.06 345.148L178.606 350.225C178.606 350.225 142.876 287.373 137.383 287.903C131.889 288.433 79.7669 321.652 63.871 309.38C47.9751 297.107 63.4408 260.158 63.4408 260.158C63.4408 260.158 96.3247 250.755 99.8437 257.951C100.771 260.105 101.56 262.317 102.204 264.572C102.899 266.835 103.429 268.744 103.429 268.744C104.433 268.336 136.908 255.015 151.403 262.122C166.196 269.428 188.06 345.148 188.06 345.148Z" fill="#263238"/>
<path opacity="0.3" d="M188.06 345.148L178.606 350.225C178.606 350.225 142.876 287.373 137.383 287.903C131.889 288.433 79.7669 321.652 63.871 309.38C47.9751 297.107 63.4408 260.158 63.4408 260.158C63.4408 260.158 96.3247 250.755 99.8437 257.951C100.771 260.105 101.56 262.317 102.204 264.572C102.899 266.835 103.429 268.744 103.429 268.744C104.433 268.336 136.908 255.015 151.403 262.122C166.196 269.428 188.06 345.148 188.06 345.148Z" fill="white"/>
<path d="M136.699 396.401L129.286 395.551L129.242 385.089L129.23 375.487L138.199 375.068L137.405 386.358L136.699 396.401Z" fill="#E4897B"/>
<path opacity="0.2" d="M137.383 386.589L129.22 385.287V375.586L138.188 375.112L137.383 386.589Z" fill="black"/>
<path d="M173.984 347.102L187.817 340.171L189.262 346.042L178.782 351.45L173.984 347.102Z" fill="#002F87"/>
<path d="M88.4263 309.479C88.4263 309.479 90.6987 309.225 125.656 302.747C125.656 302.747 126.451 347.466 128.105 380.806L138.872 381.149C138.872 381.149 154.315 307.206 152.495 295.993C150.675 284.78 137.394 283.312 137.394 283.312C137.394 283.312 114.327 301.29 88.4263 309.479Z" fill="#263238"/>
<path opacity="0.4" d="M88.4263 309.479C88.4263 309.479 90.6987 309.225 125.656 302.747C125.656 302.747 126.451 347.466 128.105 380.806L138.872 381.149C138.872 381.149 154.315 307.206 152.495 295.993C150.675 284.78 137.394 283.312 137.394 283.312C137.394 283.312 114.327 301.29 88.4263 309.479Z" fill="white"/>
<path opacity="0.3" d="M88.4263 309.479C88.4263 309.479 90.6987 309.225 125.656 302.747C125.656 302.747 126.451 347.466 128.105 380.806L138.872 381.149C138.872 381.149 154.315 307.206 152.495 295.993C150.675 284.78 137.394 283.312 137.394 283.312C137.394 283.312 114.327 301.29 88.4263 309.479Z" fill="black"/>
<path d="M126.131 377.827L140.813 377.485L138.806 383.532L126.892 383.643L126.131 377.827Z" fill="#002F87"/>
<path opacity="0.3" d="M103.473 268.766L84.4219 275.554C84.4219 275.554 94.4382 268.071 102.248 264.595C102.943 266.857 103.473 268.766 103.473 268.766Z" fill="black"/>
<path d="M61.2344 257.885L61.9404 263.171L97.6483 255.589L96.8209 249.342L61.2344 257.885Z" fill="#263238"/>
<path opacity="0.2" d="M61.2344 257.885L61.9404 263.171L97.6483 255.589L96.8209 249.342L61.2344 257.885Z" fill="black"/>
<path d="M73.0654 254.044L71.2866 254.374L72.9668 263.434L74.7455 263.104L73.0654 254.044Z" fill="#263238"/>
<path d="M88.6364 251.75L80.8452 253.507L82.1766 259.418L89.9678 257.661L88.6364 251.75Z" fill="white"/>
<path d="M93.646 248.059L91.873 248.385L93.531 257.416L95.304 257.09L93.646 248.059Z" fill="#263238"/>
<path opacity="0.3" d="M73.0654 254.044L71.2866 254.374L72.9668 263.434L74.7455 263.104L73.0654 254.044Z" fill="white"/>
<path opacity="0.3" d="M93.646 248.059L91.873 248.385L93.531 257.416L95.304 257.09L93.646 248.059Z" fill="white"/>
<path d="M207.453 372C206.293 371.643 205.078 371.505 203.868 371.591C203.868 371.591 199.378 369.715 193.94 360.787L189.307 361.394C188.527 361.511 187.802 361.865 187.23 362.408C186.658 362.95 186.266 363.656 186.107 364.429C186.074 364.648 186.074 364.871 186.107 365.091C186.307 366.211 186.58 367.317 186.924 368.402C188.112 371.989 189.515 375.501 191.127 378.919L191.877 378.61L189.483 371.922C188.689 369.638 191.458 371.569 192.925 373.776C194.392 375.984 196.477 378.125 201.43 376.249C207.188 373.997 209.472 372.805 207.453 372Z" fill="#263238"/>
<path d="M192.781 358.414C192.781 358.414 200.216 369.715 203.867 371.591C203.867 371.591 199.775 374.902 194.314 369.583C187.265 362.751 186.085 365.091 186.085 365.091C186.022 363.752 186.085 362.411 186.273 361.085C186.835 358.491 192.781 358.414 192.781 358.414Z" fill="#E4897B"/>
<path d="M147.818 409.556C146.761 408.947 145.602 408.535 144.398 408.342C144.398 408.342 140.482 405.461 137.338 395.507L132.694 394.999C131.906 394.924 131.114 395.097 130.429 395.492C129.743 395.888 129.197 396.487 128.866 397.206C128.767 397.404 128.7 397.617 128.668 397.835C128.591 398.963 128.591 400.095 128.668 401.224C128.967 404.99 129.498 408.735 130.256 412.436L131.062 412.315L130.345 405.23C130.113 402.824 132.352 405.362 133.257 407.856C134.161 410.351 135.673 412.922 140.923 412.271C147.057 411.443 149.55 410.825 147.818 409.556Z" fill="#263238"/>
<path d="M136.787 392.891C136.787 392.891 141.331 405.638 144.431 408.342C144.431 408.342 139.677 410.549 135.606 404.126C130.366 395.816 128.679 397.813 128.679 397.813C128.925 396.501 129.295 395.216 129.782 393.973C130.951 391.545 136.787 392.891 136.787 392.891Z" fill="#E4897B"/>
<path d="M53.4574 167.751L44.125 169.627C43.7605 169.935 43.3297 170.153 42.8666 170.266C42.4035 170.379 41.9205 170.383 41.4555 170.279C38.6756 169.175 34.6713 165.941 34.1639 164.76C33.4138 163.094 34.1639 158.205 36.1274 157.322C38.091 156.439 44.8531 164.606 44.8531 164.606L54.8804 162.344L53.4574 167.751Z" fill="#E4897B"/>
<path d="M82.8884 198.785C82.8884 198.785 82.039 168.535 78.5421 167.244C75.0453 165.952 48.758 169.561 48.758 169.561L48.1182 162.653C48.1182 162.653 78.7076 157.94 84.6314 160.732C90.5551 163.524 92.5076 208.608 91.4265 217.293L82.8884 198.785Z" fill="#002F87"/>
<path opacity="0.6" d="M82.8884 198.785C82.8884 198.785 82.039 168.535 78.5421 167.244C75.0453 165.952 48.758 169.561 48.758 169.561L48.1182 162.653C48.1182 162.653 78.7076 157.94 84.6314 160.732C90.5551 163.524 92.5076 208.608 91.4265 217.293L82.8884 198.785Z" fill="white"/>
<path d="M49.2106 170.223L47.3794 162.631L50.0048 161.681L51.6705 170.455L49.2106 170.223Z" fill="#002F87"/>
<path opacity="0.7" d="M49.2106 170.223L47.3794 162.631L50.0048 161.681L51.6705 170.455L49.2106 170.223Z" fill="white"/>
<path d="M82.734 195.011C82.734 195.011 80.3844 204.215 69.0664 207.151C57.7484 210.086 45.228 202.416 45.228 202.416L47.7211 224.378L61.5762 258.977L96.9863 249.74C96.9863 249.74 94.8683 209.49 82.734 195.011Z" fill="#002F87"/>
<path opacity="0.7" d="M82.734 195.011C82.734 195.011 80.3844 204.215 69.0664 207.151C57.7484 210.086 45.228 202.416 45.228 202.416L47.7211 224.378L61.5762 258.977L96.9863 249.74C96.9863 249.74 94.8683 209.49 82.734 195.011Z" fill="white"/>
<path opacity="0.6" d="M88.8883 231.507L93.0332 230.199C93.4922 230.054 93.7469 229.564 93.6021 229.105L91.1327 221.275C90.9879 220.815 90.4985 220.561 90.0395 220.706L85.8946 222.014C85.4356 222.159 85.1809 222.648 85.3257 223.108L87.795 230.938C87.9398 231.397 88.4293 231.652 88.8883 231.507Z" fill="#002F87"/>
<path opacity="0.2" d="M88.0439 229.12L92.7568 227.633L90.7223 221.181L86.0093 222.668L88.0439 229.12Z" fill="black"/>
<path d="M87.8862 218.848L86.8447 219.177L88.0429 222.977L89.0844 222.648L87.8862 218.848Z" fill="#263238"/>
<path d="M58.6643 160.633C49.9386 160.633 44.1804 169.881 46.2211 184.549C48.2619 199.216 56.436 203.443 56.436 203.443L55.9175 199.9C64.9919 201.96 74.3476 202.483 83.5947 201.445C83.5947 201.445 79.3808 189.482 80.7487 177.265C80.7487 177.265 83.5175 160.611 58.6643 160.633Z" fill="#263238"/>
<path opacity="0.2" d="M75.9939 204.171L79.557 217.415L73.2913 212.636C73.2913 212.636 79.3915 226.586 81.0131 234.708C81.0131 234.708 75.7402 220.88 71.1954 213.298L68.5369 220.891L57.8477 209.998C57.8477 209.998 67.2903 202.758 75.9939 204.171Z" fill="black"/>
<path d="M70.7873 208.442L59.9106 208.773C64.7312 202.604 56.0166 191.854 56.0166 191.854L66.761 194.183C69.3202 204.822 73.7437 205.142 73.7437 205.142L70.7873 208.442Z" fill="#E4897B"/>
<path opacity="0.2" d="M69.7614 201.82C65.6111 201.473 61.751 199.55 58.973 196.446C58.1147 194.851 57.1258 193.33 56.0166 191.899L66.761 194.238C67.33 196.916 68.3442 199.479 69.7614 201.82Z" fill="black"/>
<path d="M66.7498 165.125C76.1152 165.908 78.7186 171.173 78.5973 180.895C78.4538 193.035 75.0562 201.39 63.5618 197.836C47.9416 193.013 51.1848 163.822 66.7498 165.125Z" fill="#E4897B"/>
<path d="M72.5856 179.891C73.2198 181.355 74.0271 182.737 74.9904 184.008C74.682 184.37 74.2805 184.64 73.8293 184.79C73.3782 184.94 72.8946 184.963 72.4312 184.857L72.5856 179.891Z" fill="#DE5753"/>
<path d="M66.2427 178.324L68.2724 177.662C68.2724 177.662 67.1914 179.273 66.2427 178.324Z" fill="#263238"/>
<path d="M66.9484 178.092C66.571 177.907 66.1391 177.865 65.7331 177.975C65.3272 178.084 64.9749 178.338 64.7422 178.688C65.0885 178.53 65.4647 178.448 65.8453 178.448C66.2259 178.448 66.6021 178.53 66.9484 178.688V178.092Z" fill="#263238"/>
<path d="M63.1757 173.623C63.0714 173.62 62.9724 173.576 62.9 173.501C62.8615 173.465 62.831 173.421 62.81 173.373C62.7891 173.325 62.7783 173.272 62.7783 173.22C62.7783 173.167 62.7891 173.115 62.81 173.066C62.831 173.018 62.8615 172.974 62.9 172.938C63.5151 172.4 64.2469 172.012 65.0375 171.805C65.8282 171.598 66.6561 171.578 67.4558 171.746C67.5597 171.768 67.6506 171.831 67.7085 171.92C67.7664 172.009 67.7866 172.117 67.7647 172.221C67.7428 172.325 67.6805 172.416 67.5915 172.474C67.5025 172.532 67.3942 172.552 67.2904 172.53C66.6229 172.394 65.9334 172.409 65.2727 172.575C64.612 172.742 63.9972 173.054 63.4736 173.49C63.4366 173.533 63.3908 173.566 63.3393 173.589C63.2879 173.612 63.232 173.624 63.1757 173.623Z" fill="#263238"/>
<path d="M77.8694 173.788C77.782 173.791 77.6961 173.764 77.6267 173.711C77.1853 173.306 76.6591 173.005 76.0867 172.829C75.5142 172.654 74.9097 172.608 74.3174 172.696C74.2667 172.709 74.2137 172.713 74.1616 172.706C74.1095 172.7 74.0592 172.683 74.0137 172.657C73.9681 172.63 73.9281 172.596 73.896 172.554C73.8638 172.512 73.8402 172.465 73.8265 172.414C73.8127 172.363 73.8091 172.31 73.8158 172.258C73.8224 172.206 73.8393 172.156 73.8654 172.11C73.8916 172.065 73.9264 172.025 73.968 171.993C74.0096 171.96 74.0571 171.937 74.1078 171.923C74.8228 171.796 75.5572 171.835 76.2551 172.036C76.9529 172.237 77.5956 172.595 78.1341 173.082C78.2158 173.149 78.2684 173.245 78.2807 173.35C78.2931 173.455 78.2642 173.561 78.2003 173.645C78.1604 173.693 78.1096 173.731 78.0521 173.756C77.9946 173.781 77.932 173.792 77.8694 173.788Z" fill="#263238"/>
<path d="M55.156 180.068C55.156 180.068 60.1752 172.74 60.0098 166.736C60.0098 166.736 79.215 160.688 78.5642 179.626C78.5642 179.626 81.7632 163.072 65.6908 161.317C49.6184 159.562 47.7541 183.202 55.487 190.927C55.487 190.927 52.0783 184.659 55.156 180.068Z" fill="#263238"/>
<path d="M56.5571 182.176C56.5572 181.083 56.124 180.035 55.3527 179.261C54.5813 178.487 53.5348 178.051 52.4425 178.048C49.5082 178.125 47.6329 183.975 54.737 186.016C55.7519 186.303 56.4248 185.343 56.5571 182.176Z" fill="#E4897B"/>
<path d="M72.5081 187.617C71.8211 188.54 71.2053 189.514 70.6658 190.53C70.4783 190.464 70.2798 190.409 70.0922 190.332C67.4999 189.415 66.5953 188.124 66.3858 187.021C66.287 186.46 66.3287 185.884 66.5071 185.343C66.599 185.032 66.7326 184.735 66.9042 184.46C68.2521 185.742 69.8634 186.714 71.6256 187.308C72.1551 187.506 72.5081 187.617 72.5081 187.617Z" fill="#263238"/>
<path d="M71.6258 187.285L71.0632 188.135C68.6143 187.263 67.0148 186.325 66.5073 185.321C66.5992 185.01 66.7328 184.713 66.9044 184.438C68.2523 185.72 69.8636 186.691 71.6258 187.285Z" fill="white"/>
<path d="M70.0922 190.332C67.4999 189.416 66.5953 188.124 66.3857 187.021C67.3664 187.382 68.2743 187.917 69.0663 188.599C69.5798 189.056 69.9384 189.661 70.0922 190.332Z" fill="#DE5753"/>
<path d="M66.4964 165.82C66.4964 165.82 61.4331 180.929 51.7477 179.891C42.0623 178.854 58.6642 160.6 58.6642 160.6C58.6642 160.6 75.0014 155.931 82.1165 165.014C89.2316 174.097 78.5976 179.604 78.5976 179.604C78.5976 179.604 80.186 167.751 66.4964 165.82Z" fill="#263238"/>
<path d="M58.7743 178.677C58.7183 178.675 58.6641 178.657 58.6174 178.626C58.5708 178.595 58.5335 178.551 58.5095 178.501C58.4843 178.43 58.4875 178.353 58.5184 178.285C58.5493 178.217 58.6055 178.164 58.675 178.136C66.3968 175.19 66.2203 164.827 66.2203 164.716C66.2171 164.68 66.2217 164.644 66.2337 164.61C66.2458 164.576 66.265 164.544 66.29 164.518C66.3151 164.492 66.3455 164.472 66.3791 164.458C66.4128 164.445 66.4489 164.439 66.4851 164.44C66.5568 164.443 66.6252 164.471 66.6779 164.519C66.7306 164.568 66.764 164.634 66.7719 164.705C66.7719 164.816 66.9484 175.565 58.8736 178.655L58.7743 178.677Z" fill="#263238"/>
<path d="M75.7515 179.24L77.7812 178.589C77.7812 178.589 76.6891 180.189 75.7515 179.24Z" fill="#263238"/>
<path d="M76.4572 179.008C76.079 178.821 75.6454 178.78 75.2387 178.892C74.8319 179.004 74.4804 179.261 74.251 179.615C74.5921 179.445 74.966 179.351 75.3468 179.34C75.7277 179.329 76.1065 179.4 76.4572 179.549V179.008Z" fill="#263238"/>
<path d="M61.4438 204.314L69.64 208.486L69.5076 216.796L57.7925 209.965L61.4438 204.314Z" fill="#002F87"/>
<path d="M70.8867 202.747L71.3721 207.791L76.7222 213.452L75.9941 204.138L70.8867 202.747Z" fill="#002F87"/>
<path d="M33.0166 145.679L29.5969 136.85C29.6594 136.378 29.6111 135.898 29.456 135.447C29.301 134.997 29.0433 134.589 28.7034 134.256C26.3207 132.479 21.4008 130.868 20.1653 131.056C18.3672 131.321 14.6497 134.576 14.9696 136.706C15.2895 138.836 25.7912 140.15 25.7912 140.15L29.277 149.828L33.0166 145.679Z" fill="#E4897B"/>
<path d="M47.743 224.378C47.743 224.378 54.3617 219.114 51.7252 207.482L44.6101 175.3L32.3876 142.059L26.4087 145.083C26.4087 145.083 36.4471 177.563 37.3737 179.759C37.848 180.862 39.7343 197.715 42.3046 209.005C44.6653 219.401 47.743 224.378 47.743 224.378Z" fill="#002F87"/>
<path opacity="0.6" d="M47.743 224.378C47.743 224.378 54.3617 219.114 51.7252 207.482L44.6101 175.3L32.3876 142.059L26.4087 145.083C26.4087 145.083 36.4471 177.563 37.3737 179.759C37.848 180.862 39.7343 197.715 42.3046 209.005C44.6653 219.401 47.743 224.378 47.743 224.378Z" fill="white"/>
<path d="M25.3608 144.134L32.3436 140.635L33.8659 142.964L25.7028 146.584L25.3608 144.134Z" fill="#002F87"/>
<path opacity="0.7" d="M25.3608 144.134L32.3436 140.635L33.8659 142.964L25.7028 146.584L25.3608 144.134Z" fill="white"/>
<path opacity="0.6" d="M61.4438 204.314L69.64 208.486L69.5076 216.796L57.7925 209.965L61.4438 204.314Z" fill="white"/>
<path opacity="0.6" d="M70.8867 202.747L71.3721 207.791L76.7222 213.452L75.9941 204.138L70.8867 202.747Z" fill="white"/>
<path d="M303.644 186.965H270.595V212.658H303.644V186.965Z" fill="white"/>
<path opacity="0.1" d="M303.644 186.965H295.172V212.658H303.644V186.965Z" fill="black"/>
<path d="M268.697 235.348H306.06V188.72H294.025L268.697 200.849V235.348Z" fill="#002F87"/>
<path opacity="0.2" d="M306.06 188.72H294.025V235.348H306.06V188.72Z" fill="black"/>
<path opacity="0.7" d="M290.043 210.042H272.547V218.43H290.043V210.042Z" fill="white"/>
<path opacity="0.7" d="M290.043 221.233H272.547V222.436H290.043V221.233Z" fill="white"/>
<path opacity="0.7" d="M304.891 224.754H295.172V231.872H304.891V224.754Z" fill="white"/>
<path d="M289.602 185.564H256.552V212.658H289.602V185.564Z" fill="white"/>
<path opacity="0.1" d="M289.601 185.564H281.129V212.658H289.601V185.564Z" fill="black"/>
<path d="M254.655 235.348H292.017V188.72H279.982L254.655 200.849V235.348Z" fill="#002F87"/>
<path opacity="0.2" d="M292.017 188.72H279.982V235.348H292.017V188.72Z" fill="black"/>
<path opacity="0.7" d="M276 210.042H258.504V218.43H276V210.042Z" fill="white"/>
<path opacity="0.7" d="M276 221.233H258.504V222.436H276V221.233Z" fill="white"/>
<path opacity="0.7" d="M290.848 224.754H281.129V231.872H290.848V224.754Z" fill="white"/>
<path d="M231.445 412.381H238.207L250.342 243.25H241.373L231.445 412.381Z" fill="#263238"/>
<path opacity="0.1" d="M231.445 412.381H238.207L249.746 251.649L250.342 243.526H241.373L240.899 251.649L231.445 412.381Z" fill="white"/>
<path opacity="0.2" d="M240.899 251.252H249.746L250.342 243.526H241.373L240.899 251.252Z" fill="black"/>
<path d="M181.849 412.381H188.611L189.714 243.25H180.746L181.849 412.381Z" fill="#263238"/>
<path opacity="0.1" d="M180.735 243.526L180.922 270.808L181.838 412.381H188.6L189.527 270.808L189.703 243.526H180.735Z" fill="white"/>
<path opacity="0.2" d="M180.735 243.526L180.922 271.117H189.527L189.703 243.526H180.735Z" fill="black"/>
<path d="M110.102 412.381H116.864L128.998 243.25H120.03L110.102 412.381Z" fill="#263238"/>
<path opacity="0.1" d="M110.102 412.381H116.864L128.414 251.649L128.998 243.526H120.03L119.556 251.649L110.102 412.381Z" fill="white"/>
<path opacity="0.2" d="M119.556 251.252H128.414L128.998 243.526H120.03L119.556 251.252Z" fill="black"/>
<path d="M308.752 412.381H315.514L305.575 243.25H296.606L308.752 412.381Z" fill="#263238"/>
<path opacity="0.1" d="M296.606 243.526L297.213 251.649L308.752 412.381H315.503L306.06 251.649L305.575 243.526H296.606Z" fill="white"/>
<path opacity="0.2" d="M305.575 243.526H296.606L297.213 251.252H306.06L305.575 243.526Z" fill="black"/>
<path d="M310.307 247.488L115.32 247.488C115.007 247.488 114.697 247.427 114.408 247.307C114.119 247.187 113.856 247.012 113.635 246.79C113.414 246.569 113.238 246.306 113.118 246.017C112.999 245.728 112.937 245.418 112.937 245.105V239.024L312.689 239.024V245.105C312.689 245.418 312.628 245.728 312.508 246.017C312.388 246.306 312.213 246.569 311.992 246.79C311.77 247.012 311.508 247.187 311.219 247.307C310.929 247.427 310.62 247.488 310.307 247.488Z" fill="#002F87"/>
<path opacity="0.4" d="M310.307 247.488L115.32 247.488C115.007 247.488 114.697 247.427 114.408 247.307C114.119 247.187 113.856 247.012 113.635 246.79C113.414 246.569 113.238 246.306 113.118 246.017C112.999 245.728 112.937 245.418 112.937 245.105V239.024L312.689 239.024V245.105C312.689 245.418 312.628 245.728 312.508 246.017C312.388 246.306 312.213 246.569 311.992 246.79C311.77 247.012 311.508 247.187 311.219 247.307C310.929 247.427 310.62 247.488 310.307 247.488Z" fill="white"/>
<path opacity="0.2" d="M112.937 243.25L312.689 243.25V239.013L112.937 239.013V243.25Z" fill="black"/>
<path d="M108.745 240.116H316.871C317.184 240.118 317.494 240.057 317.784 239.938C318.074 239.818 318.337 239.643 318.559 239.421C318.78 239.2 318.956 238.936 319.075 238.646C319.194 238.356 319.255 238.046 319.253 237.732C319.253 237.1 319.002 236.494 318.555 236.047C318.109 235.6 317.502 235.348 316.871 235.348H108.745C108.112 235.348 107.505 235.599 107.057 236.046C106.608 236.493 106.354 237.099 106.352 237.732C106.352 238.046 106.414 238.357 106.534 238.647C106.654 238.937 106.831 239.2 107.053 239.422C107.276 239.643 107.54 239.819 107.83 239.938C108.12 240.057 108.431 240.118 108.745 240.116Z" fill="#002F87"/>
<path opacity="0.4" d="M108.745 240.116H316.871C317.184 240.118 317.494 240.057 317.784 239.938C318.074 239.818 318.337 239.643 318.559 239.421C318.78 239.2 318.956 238.936 319.075 238.646C319.194 238.356 319.255 238.046 319.253 237.732C319.253 237.1 319.002 236.494 318.555 236.047C318.109 235.6 317.502 235.348 316.871 235.348H108.745C108.112 235.348 107.505 235.599 107.057 236.046C106.608 236.493 106.354 237.099 106.352 237.732C106.352 238.046 106.414 238.357 106.534 238.647C106.654 238.937 106.831 239.2 107.053 239.422C107.276 239.643 107.54 239.819 107.83 239.938C108.12 240.057 108.431 240.118 108.745 240.116Z" fill="white"/>
<path d="M272.15 235.326V231.596H274.654L272.15 230.139H274.025L271.521 228.506H269.15V226.63H271.907L269.15 225.537V221.465H271.907V218.805H274.654L271.907 217.878V215.98H273.871L272.26 214.38L270.871 212.978H228.246V214.887H225.433L228.566 216.3V217.878H222.819V220.814H220.271L222.819 222.094V225.372H224.628V226.939H228.246V231.596H226.216L227.882 233.263V235.348L272.15 235.326Z" fill="#002F87"/>
<path opacity="0.7" d="M272.15 235.326V231.596H274.654L272.15 230.139H274.025L271.521 228.506H269.15V226.63H271.907L269.15 225.537V221.465H271.907V218.805H274.654L271.907 217.878V215.98H273.871L272.26 214.38L270.871 212.978H228.246V214.887H225.433L228.566 216.3V217.878H222.819V220.814H220.271L222.819 222.094V225.372H224.628V226.939H228.246V231.596H226.216L227.882 233.263V235.348L272.15 235.326Z" fill="white"/>
<path opacity="0.1" d="M272.15 235.326V231.596H274.654L272.15 230.139H274.025L271.521 228.506H269.15V226.63H271.907L269.15 225.537V221.465H271.907V218.805H274.654L271.907 217.878V215.98H273.871L272.26 214.38L270.871 212.978H248.422V214.887H245.609L248.731 216.3V217.878H242.984V220.814H240.436L242.984 222.094V225.372H244.793V226.939H248.422V231.596H246.392L248.047 233.263V235.348L272.15 235.326Z" fill="black"/>
<path opacity="0.1" d="M228.566 217.878H248.731L228.566 217.15V217.878Z" fill="black"/>
<path opacity="0.1" d="M228.246 226.939H248.422L248.51 228.351L228.246 226.939Z" fill="black"/>
<path opacity="0.1" d="M224.628 225.372H244.793L224.628 226.078V225.372Z" fill="black"/>
<path opacity="0.1" d="M228.246 231.596H248.422L228.246 230.857V231.596Z" fill="black"/>
<path opacity="0.1" d="M227.882 233.263H248.047V234.035L227.882 233.263Z" fill="black"/>
<path opacity="0.1" d="M222.819 220.814H242.984L222.819 220.174V220.814Z" fill="black"/>
<path opacity="0.1" d="M228.246 214.887H248.422L228.246 214.181V214.887Z" fill="black"/>
<path opacity="0.1" d="M271.908 215.98H251.445L271.908 216.609V215.98Z" fill="black"/>
<path opacity="0.1" d="M248.731 217.878H271.907L250.893 218.562L248.731 217.878Z" fill="black"/>
<path opacity="0.1" d="M242.984 220.814L271.908 221.465V220.814H242.984Z" fill="black"/>
<path opacity="0.1" d="M242.984 222.094H257.291L242.984 222.789V222.094Z" fill="black"/>
<path opacity="0.1" d="M269.149 225.537L248.422 225.372L269.149 224.908V225.537Z" fill="black"/>
<path opacity="0.1" d="M269.15 226.63H248.047L269.15 227.336V226.63Z" fill="black"/>
<path opacity="0.1" d="M272.15 230.139H248.731V230.857L272.15 230.139Z" fill="black"/>
<path opacity="0.1" d="M272.15 231.596H255.184L272.15 232.071V231.596Z" fill="black"/>
<path d="M217.877 230.515V234.057C217.877 234.962 216.774 235.337 215.902 235.337H145.17C144.266 235.337 143.174 234.962 143.174 234.057V230.515H217.877Z" fill="#263238"/>
<path opacity="0.4" d="M217.877 230.515V234.057C217.877 234.962 216.774 235.337 215.902 235.337H145.17C144.266 235.337 143.174 234.962 143.174 234.057V230.515H217.877Z" fill="white"/>
<path opacity="0.2" d="M217.877 230.515V234.057C217.877 234.962 216.774 235.337 215.902 235.337H169.251C168.347 235.337 167.266 234.962 167.266 234.057V230.515H217.877Z" fill="black"/>
<path d="M229.713 193.742L221.285 231.96C221.14 232.581 220.792 233.135 220.297 233.535C219.801 233.934 219.186 234.157 218.55 234.168H172.561C172.274 234.161 171.994 234.089 171.74 233.956C171.487 233.823 171.268 233.633 171.1 233.401C170.932 233.169 170.82 232.901 170.773 232.619C170.726 232.336 170.745 232.047 170.829 231.773L179.235 193.852C179.407 193.273 179.773 192.771 180.271 192.43C180.768 192.088 181.368 191.928 181.97 191.976H227.97C229.206 191.932 229.978 192.495 229.713 193.742Z" fill="#263238"/>
<path opacity="0.4" d="M229.713 193.742L221.286 231.96C221.141 232.581 220.793 233.135 220.297 233.535C219.801 233.934 219.187 234.157 218.55 234.168H174.116C173.83 234.161 173.549 234.089 173.296 233.956C173.042 233.823 172.823 233.633 172.655 233.401C172.488 233.169 172.376 232.901 172.329 232.619C172.282 232.336 172.301 232.047 172.384 231.773L180.801 193.852C180.972 193.272 181.337 192.769 181.835 192.427C182.334 192.085 182.935 191.926 183.537 191.976H227.971C229.206 191.932 229.978 192.495 229.713 193.742Z" fill="white"/>
<path opacity="0.2" d="M207.033 213.166C207.033 216.476 203.525 219.092 200.955 219.092C198.385 219.092 196.862 216.432 197.646 213.166C198.429 209.899 200.955 207.349 203.448 207.25C202.72 210.561 204.286 213.166 206.846 213.166H207.033Z" fill="black"/>
</g>
<defs>
<clipPath id="clip0_192_623">
<rect width="460" height="426" fill="white"/>
</clipPath>
</defs>
</svg>
